TITLE ""
FILE "Step1_Track30.mp3" MP3
  TRACK 01 AUDIO
    TITLE "Step1_Track30_01"
    INDEX 01 00:00:00
  TRACK 02 AUDIO
    TITLE "Step1_Track30_02"
    INDEX 01 00:00:24
  TRACK 03 AUDIO
    TITLE "Step1_Track30_03"
    INDEX 01 00:01:57
  TRACK 04 AUDIO
    TITLE "Step1_Track30_04"
    INDEX 01 00:02:35
  TRACK 05 AUDIO
    TITLE "Step1_Track30_05"
    INDEX 01 00:03:34
  TRACK 06 AUDIO
    TITLE "Step1_Track30_06"
    INDEX 01 00:03:58
  TRACK 07 AUDIO
    TITLE "Step1_Track30_07"
    INDEX 01 00:06:58
  TRACK 08 AUDIO
    TITLE "Step1_Track30_08"
    INDEX 01 00:07:03
  TRACK 09 AUDIO
    TITLE "Step1_Track30_09"
    INDEX 01 00:07:73
  TRACK 10 AUDIO
    TITLE "Step1_Track30_10"
    INDEX 01 00:08:00
  TRACK 11 AUDIO
    TITLE "Step1_Track30_11"
    INDEX 01 00:10:30
  TRACK 12 AUDIO
    TITLE "Step1_Track30_12"
    INDEX 01 00:10:66
  TRACK 13 AUDIO
    TITLE "Step1_Track30_13"
    INDEX 01 00:11:59
  TRACK 14 AUDIO
    TITLE "Step1_Track30_14"
    INDEX 01 00:11:71
  TRACK 15 AUDIO
    TITLE "Step1_Track30_15"
    INDEX 01 00:15:22
  TRACK 16 AUDIO
    TITLE "Step1_Track30_16"
    INDEX 01 00:15:31
  TRACK 17 AUDIO
    TITLE "Step1_Track30_17"
    INDEX 01 00:16:35
  TRACK 18 AUDIO
    TITLE "Step1_Track30_18"
    INDEX 01 00:16:58
  TRACK 19 AUDIO
    TITLE "Step1_Track30_19"
    INDEX 01 00:19:47
  TRACK 20 AUDIO
    TITLE "Step1_Track30_20"
    INDEX 01 00:19:57
  TRACK 21 AUDIO
    TITLE "Step1_Track30_21"
    INDEX 01 00:20:50
  TRACK 22 AUDIO
    TITLE "Step1_Track30_22"
    INDEX 01 00:20:66
  TRACK 23 AUDIO
    TITLE "Step1_Track30_23"
    INDEX 01 00:23:33
  TRACK 24 AUDIO
    TITLE "Step1_Track30_24"
    INDEX 01 00:23:52
  TRACK 25 AUDIO
    TITLE "Step1_Track30_25"
    INDEX 01 00:24:58
  TRACK 26 AUDIO
    TITLE "Step1_Track30_26"
    INDEX 01 00:24:64
  TRACK 27 AUDIO
    TITLE "Step1_Track30_27"
    INDEX 01 00:27:42
  TRACK 28 AUDIO
    TITLE "Step1_Track30_28"
    INDEX 01 00:27:44
  TRACK 29 AUDIO
    TITLE "Step1_Track30_29"
    INDEX 01 00:28:52
  TRACK 30 AUDIO
    TITLE "Step1_Track30_30"
    INDEX 01 00:28:54
  TRACK 31 AUDIO
    TITLE "Step1_Track30_31"
    INDEX 01 00:31:25
  TRACK 32 AUDIO
    TITLE "Step1_Track30_32"
    INDEX 01 00:31:48
  TRACK 33 AUDIO
    TITLE "Step1_Track30_33"
    INDEX 01 00:32:38
  TRACK 34 AUDIO
    TITLE "Step1_Track30_34"
    INDEX 01 00:32:57
  TRACK 35 AUDIO
    TITLE "Step1_Track30_35"
    INDEX 01 00:35:24
  TRACK 36 AUDIO
    TITLE "Step1_Track30_36"
    INDEX 01 00:35:46
  TRACK 37 AUDIO
    TITLE "Step1_Track30_37"
    INDEX 01 00:36:49
  TRACK 38 AUDIO
    TITLE "Step1_Track30_38"
    INDEX 01 00:36:61
  TRACK 39 AUDIO
    TITLE "Step1_Track30_39"
    INDEX 01 00:38:23
  TRACK 40 AUDIO
    TITLE "Step1_Track30_40"
    INDEX 01 00:38:46
  TRACK 41 AUDIO
    TITLE "Step1_Track30_41"
    INDEX 01 00:39:44
  TRACK 42 AUDIO
    TITLE "Step1_Track30_42"
    INDEX 01 00:39:59
  TRACK 43 AUDIO
    TITLE "Step1_Track30_43"
    INDEX 01 00:42:54
